<svg width="62" height="150" viewBox="0 0 62 150" fill="none" xmlns="http://www.w3.org/2000/svg">
<path fill-rule="evenodd" clip-rule="evenodd" d="M50.1094 37.7847C50.633 38.033 50.9669 38.5606 50.9669 39.1402L50.9669 54.7003C50.9669 55.2163 50.7017 55.696 50.2649 55.9705L42.2799 60.9872C41.8177 61.2776 41.2341 61.2939 40.7563 61.0299C40.2785 60.7658 39.9819 60.263 39.9819 59.717L39.9819 45.6702C39.9819 45.2202 40.184 44.794 40.5323 44.5091L48.5173 37.979C48.9659 37.6121 49.5857 37.5365 50.1094 37.7847ZM42.9819 46.3813L42.9819 57.0032L47.9669 53.8713L47.9669 42.3046L42.9819 46.3813Z" fill="white"/>
<path fill-rule="evenodd" clip-rule="evenodd" d="M24.2953 22.7804C24.7697 22.5153 25.3504 22.5276 25.8132 22.8125L50.2613 37.8626C50.6747 38.1171 50.9394 38.5558 50.9717 39.0402C51.004 39.5245 50.7999 39.9945 50.424 40.3016L42.4307 46.8317C41.941 47.2317 41.2532 47.2818 40.7108 46.9568L24.256 37.099C23.8037 36.828 23.5269 36.3395 23.5269 35.8122L23.5269 24.0898C23.5269 23.5464 23.8208 23.0454 24.2953 22.7804ZM26.5269 26.7747L26.5269 34.9623L41.3487 43.8418L46.8933 39.3122L26.5269 26.7747Z" fill="white"/>
<path fill-rule="evenodd" clip-rule="evenodd" d="M48.6689 53.4306C49.1582 53.1232 49.7807 53.1242 50.2691 53.4333L60.5868 59.9634C61.022 60.2388 61.2854 60.7183 61.2846 61.2333C61.2837 61.7484 61.0187 62.227 60.5826 62.501L52.5976 67.5177C52.1083 67.8251 51.4858 67.8241 50.9975 67.515L40.6797 60.9849C40.2445 60.7095 39.9811 60.23 39.9819 59.715C39.9828 59.1999 40.2478 58.7213 40.6839 58.4473L48.6689 53.4306ZM44.2941 59.7221L51.8026 64.4742L56.9724 61.2262L49.4639 56.4741L44.2941 59.7221Z" fill="white"/>
<path fill-rule="evenodd" clip-rule="evenodd" d="M24.3038 69.4478C24.7828 69.1841 25.3674 69.2019 25.8294 69.4944L48.8561 84.0679C49.2926 84.3441 49.5562 84.8254 49.5539 85.3419C49.5517 85.8584 49.2839 86.3374 48.845 86.6098L37.5574 93.6165C37.0667 93.9211 36.4447 93.9169 35.9581 93.6057L24.219 86.0974C23.788 85.8217 23.5272 85.3453 23.5272 84.8337L23.5272 70.7618C23.5272 70.215 23.8248 69.7115 24.3038 69.4478ZM26.5272 73.4864L26.5272 84.0125L36.7783 90.5691L45.2296 85.3231L26.5272 73.4864Z" fill="white"/>
<path fill-rule="evenodd" clip-rule="evenodd" d="M14.0154 0.688376C14.492 0.952815 14.7876 1.45496 14.7876 2L14.7876 116.756L35.2658 104.066V92.3427C35.2658 91.824 35.5338 91.3422 35.9743 91.0685L47.2536 84.0618C47.7161 83.7745 48.2981 83.7604 48.774 84.025C49.25 84.2897 49.5451 84.7915 49.5451 85.336L49.5451 112.92C49.5451 113.442 49.273 113.927 48.8269 114.2L2.78177 142.318C2.31877 142.601 1.73919 142.612 1.26606 142.346C0.792929 142.081 0.5 141.581 0.5 141.038L0.5 9.04012C0.5 8.52244 0.766939 8.04135 1.20619 7.76739L12.4938 0.727262C12.9563 0.438824 13.5388 0.423937 14.0154 0.688376ZM3.5 9.87241L3.5 138.365L46.5451 112.078L46.5451 88.0337L38.2658 93.1767V104.901C38.2658 105.42 37.9973 105.903 37.5559 106.176L14.0777 120.725C13.6151 121.011 13.0334 121.025 12.5579 120.76C12.0824 120.495 11.7876 119.994 11.7876 119.45L11.7876 4.7034L3.5 9.87241Z" fill="white"/>
<path fill-rule="evenodd" clip-rule="evenodd" d="M47.2647 111.163C47.7542 110.864 48.371 110.871 48.854 111.18L60.5931 118.688C61.0288 118.967 61.2902 119.45 61.2848 119.967C61.2795 120.484 61.0081 120.962 60.5667 121.232L14.5216 149.351C14.0311 149.65 13.4126 149.643 12.9291 149.332L1.18996 141.791C0.755184 141.511 0.494803 141.028 0.500835 140.511C0.506867 139.994 0.778461 139.517 1.21964 139.248L47.2647 111.163ZM4.82722 140.562L13.76 146.3L56.955 119.922L48.027 114.212L4.82722 140.562Z" fill="white"/>
<path fill-rule="evenodd" clip-rule="evenodd" d="M12.5617 0.687856C13.039 0.423626 13.6221 0.439375 14.0845 0.728983L60.5894 29.8594C61.0255 30.1325 61.2911 30.6102 61.2931 31.1248L61.4102 61.3755C61.4123 61.9248 61.1141 62.4313 60.6327 62.6959C60.1514 62.9604 59.564 62.9408 59.1014 62.6446L48.6666 55.964C48.236 55.6883 47.9754 55.2121 47.9754 54.7008V39.9786L26.5273 26.7753L26.5273 56.3834L60.5762 77.5319C61.0168 77.8055 61.2848 78.2874 61.2848 78.8061L61.2848 119.951C61.2848 120.5 60.9857 121.004 60.5049 121.267C60.024 121.53 59.4378 121.51 58.9761 121.215L47.2454 113.707C46.8146 113.431 46.554 112.955 46.554 112.443L46.554 86.162L26.5273 73.4871L26.5273 112.176C26.5273 112.679 26.2751 113.148 25.8557 113.426L14.1166 121.202C13.656 121.507 13.0651 121.534 12.5785 121.273C12.0918 121.012 11.7882 120.504 11.7882 119.951L11.7882 2.00018C11.7882 1.45463 12.0844 0.952086 12.5617 0.687856ZM14.7882 4.70975L14.7882 117.159L23.5273 111.37L23.5273 70.7626C23.5273 70.2158 23.8249 69.7123 24.3039 69.4486C24.7829 69.1849 25.3675 69.2027 25.8295 69.4951L48.8562 84.0687C49.2907 84.3437 49.554 84.822 49.554 85.3362L49.554 111.622L58.2848 117.21L58.2848 79.6402L24.2359 58.4917C23.7953 58.218 23.5273 57.7362 23.5273 57.2175L23.5273 24.0904C23.5273 23.547 23.8213 23.046 24.2957 22.781C24.7702 22.5159 25.3509 22.5282 25.8137 22.8131L50.2618 37.8632C50.7053 38.1362 50.9754 38.6198 50.9754 39.1406V53.88L58.3995 58.6331L58.2963 31.963L14.7882 4.70975Z" fill="white"/>
</svg>
